<svg width="304" height="304" viewBox="0 0 304 304" fill="none" xmlns="http://www.w3.org/2000/svg">
<g opacity="0.5">
<path d="M240.667 266H63.3333C49.3421 266 38 254.658 38 240.667V63.3333C38 49.3421 49.3421 38 63.3333 38H240.667C254.658 38 266 49.3421 266 63.3333V240.667C266 254.658 254.658 266 240.667 266ZM63.3333 63.3333V240.667H240.667V63.3333H63.3333ZM228 215.333H76L114 164.667L126.667 177.333L164.667 126.667L228 215.333ZM107.667 139.333C97.1733 139.333 88.6667 130.827 88.6667 120.333C88.6667 109.84 97.1733 101.333 107.667 101.333C118.16 101.333 126.667 109.84 126.667 120.333C126.667 130.827 118.16 139.333 107.667 139.333Z" fill="#A09E9E"/>
</g>
</svg>
